<?xml version="1.0" encoding="UTF-8" standalone="no"?>
<!DOCTYPE svg PUBLIC "-//W3C//DTD SVG 1.1//EN" "http://www.w3.org/Graphics/SVG/1.1/DTD/svg11.dtd">
<svg width="100%" height="100%" viewBox="0 0 800 600" version="1.1" xmlns="http://www.w3.org/2000/svg" xmlns:xlink="http://www.w3.org/1999/xlink" xml:space="preserve" xmlns:serif="http://www.serif.com/" style="fill-rule:evenodd;clip-rule:evenodd;stroke-linejoin:round;stroke-miterlimit:2;">
    <g transform="matrix(0.159556,0,0,0.159556,400,314.63)">
        <g id="EMS_EMS_Logo_Red.eps" transform="matrix(1,0,0,1,-2250,-393.75)">
            <clipPath id="_clip1">
                <rect x="0" y="0" width="4500" height="787.5"/>
            </clipPath>
            <g clip-path="url(#_clip1)">
                <g transform="matrix(4.16667,0,0,4.16667,0,0)">
                    <path d="M1022.34,152.856L1003.73,134.25L1022.64,115.34L1041.25,133.946L1022.34,152.856ZM1022.03,39.375L1040.94,58.285L1022.64,76.586L1022.34,76.282L1003.73,57.676L1022.03,39.375ZM999.215,99.404L984.049,114.569L969.005,99.525L965.748,96.268L984.05,77.966L1002.35,96.268L999.215,99.404ZM946.067,153.16L927.157,134.25L946.067,115.34L964.977,134.25L946.067,153.16ZM946.371,39.071L964.673,57.372L945.762,76.283L927.461,57.981L946.371,39.071ZM1042.02,95.963L1079.7,58.285L1022.03,0.623L984.354,38.3L984.049,37.995L946.371,0.317L888.708,57.981L926.386,95.659L926.69,95.963L888.404,134.25L946.067,191.914L984.354,153.627L1022.34,191.61L1080,133.946L1042.02,95.963Z" style="fill:rgb(189,53,58);fill-rule:nonzero;"/>
                    <path d="M835.736,0.533C792.163,0.513 748.59,0.526 705.017,0.517C658.205,0.507 611.393,0.577 564.583,0.434C563.928,0.432 563.32,0.438 562.735,0.45L554.393,0.45L557.021,7.727L557.03,7.723C557.262,8.399 557.528,9.116 557.87,9.923C571.735,42.717 584.75,75.873 597.795,109.007L601.065,117.401L608.206,117.346C608.723,117.377 609.255,117.394 609.819,117.383C611.162,117.357 612.505,117.334 613.848,117.315C615.064,117.297 616.281,117.283 617.497,117.27C630.857,117.133 644.222,117.282 657.584,117.275C678.601,117.263 699.619,117.189 720.636,117.279C722.192,117.285 724.708,117.023 726.536,117.317L715.004,136.014C694.418,136.006 666.281,135.57 645.82,135.704L589.898,135.704C589.142,132.509 587.715,129.186 586.027,125.322C570.694,90.217 556.975,54.405 542.975,18.721L542.979,18.721L541.788,15.687L535.874,0.45L528.914,0.486C528.555,0.471 528.211,0.44 527.829,0.445C514.021,0.646 500.21,0.666 486.401,0.513L471.924,0.317L469.048,6.564C468.819,6.993 468.595,7.439 468.38,7.921C457.756,31.769 446.817,55.476 435.902,79.194L435.901,79.193L432.831,85.866L432.634,86.299C432.018,87.638 431.401,88.978 430.785,90.318C430.764,90.365 430.748,90.432 430.728,90.485L426.179,100.476L419.464,85.645L417.087,80.149L417.084,80.155C407.412,57.806 397.684,35.481 388.191,13.057L383.246,0.317L325.58,0.317L321.786,8.269L321.771,8.303C321.555,8.733 321.344,9.177 321.137,9.644C320.81,10.383 320.475,11.141 320.146,11.885L320.103,11.981L320.104,11.981C306.493,42.772 291.053,77.868 276.227,109.93L276.185,109.93L274.99,112.593C271.853,119.357 268.744,125.987 265.693,132.387L265.69,132.392C264.919,134.008 264.428,134.945 263.978,135.48L243.791,135.704L184.526,135.704C171.105,135.687 157.684,135.699 144.264,135.702C143.575,135.703 142.886,135.704 142.197,135.704L141.478,135.704L141.478,135.705C132.056,135.714 115.275,135.746 103.902,135.682L111.353,117.26C152.473,117.254 205.109,117.168 244.689,117.407C246.032,117.415 247.264,117.34 248.397,117.168C251.856,117.191 254.563,117.221 254.563,117.221L274.534,71.824L268.023,71.824C267.36,71.774 266.628,71.756 265.821,71.765C253.715,71.898 241.606,71.808 229.498,71.808C198.983,71.809 160.483,71.852 129.765,71.744L138.764,49.498C181.507,49.468 229.664,49.272 272.308,49.692C273.46,49.703 274.538,49.666 275.559,49.582L284.085,49.477L304.324,0.532L285.561,0.532L285.563,0.536C253.716,0.509 221.869,0.525 190.022,0.522C155.609,0.519 121.194,0.768 86.787,0.334C85.991,0.324 85.253,0.339 84.543,0.371L76.072,0.317L73.143,7.866C72.779,8.607 72.42,9.401 72.062,10.284C65.737,25.891 59.842,41.68 53.573,57.317C37.887,96.438 22.226,135.569 6.371,174.622L0,189.681L21.746,189.509C61.656,189.364 101.567,189.35 141.478,189.355L141.478,189.681L277.511,189.681L282.385,189.571C282.421,189.57 282.457,189.569 282.493,189.568L282.778,189.562L303.651,189.03L313.215,172.871C313.881,171.795 314.559,170.65 315.251,169.432L315.353,169.26L315.431,169.116C315.887,168.308 316.348,167.48 316.82,166.607C317.501,165.349 318.166,164.08 318.838,162.815L319.522,161.551L319.51,161.552C328.389,144.746 336.588,127.462 345.496,110.599C345.497,110.595 345.499,110.59 345.501,110.586L350.178,101.808L353.611,110.171C353.694,110.451 353.782,110.702 353.88,110.882C353.946,111.004 353.997,111.135 354.058,111.26L354.786,113.034C355.05,113.798 355.288,114.577 355.574,115.331C355.782,115.882 355.989,116.425 356.197,116.975L356.212,117.017L356.213,117.018C364.309,138.399 372.17,158.827 380.09,180.33C380.377,181.107 380.688,181.84 381.025,182.532L383.979,189.495L392.362,189.556C409.583,189.081 426.828,189.158 444.056,189.48L454.462,189.681L458.321,181.444C468.714,159.262 479.597,137.31 490.319,115.283L490.325,115.283L492.287,111.247L496.917,102.219L501.956,113.204L502.848,115.283L502.849,115.282C509.903,131.727 516.997,148.157 523.826,164.696C524.463,166.237 525.058,167.679 525.624,169.033L525.623,169.033L525.651,169.097C526.055,170.065 526.441,170.976 526.817,171.854L526.917,172.092L526.94,172.141C527.748,174.019 528.503,175.699 529.233,177.19L534.596,189L550.472,189.288C551.716,189.325 553.045,189.348 554.468,189.361L554.574,189.363L554.573,189.362C556.122,189.376 557.77,189.38 559.554,189.381C559.561,189.381 559.566,189.383 559.572,189.383L638.428,189.563C639.349,189.728 640.384,189.675 641.432,189.57L689.798,189.681C712.386,189.663 734.974,189.333 757.559,189.572L767.729,189.681L771.598,182.411C771.932,181.834 772.26,181.229 772.577,180.571C788.316,147.945 804.477,115.523 820.46,83.014C821.228,81.454 821.873,80.131 822.406,78.975L822.408,78.978L825.68,71.833L817.446,71.833L817.447,71.834C816.341,71.815 815.094,71.813 813.666,71.812C765.262,71.803 716.859,71.835 668.455,71.764C667.34,71.762 666.166,71.886 665.003,71.936L657.54,49.925C660.766,49.691 664.662,49.543 669.358,49.494C719.27,48.969 769.188,49.272 819.099,49.648L819.099,49.649L819.187,49.649C821.15,49.663 823.113,49.677 825.077,49.692L836.274,49.761L857.058,0.533L845.451,0.539C842.213,0.537 838.974,0.535 835.736,0.533Z" style="fill:rgb(189,53,58);fill-rule:nonzero;"/>
                </g>
            </g>
        </g>
        <g id="EMS_EMS_Logo_Red.eps1" serif:id="EMS_EMS_Logo_Red.eps">
        </g>
    </g>
</svg>
