<?xml version="1.0" encoding="UTF-8" standalone="no"?>
<!DOCTYPE svg PUBLIC "-//W3C//DTD SVG 1.1//EN" "http://www.w3.org/Graphics/SVG/1.1/DTD/svg11.dtd">
<svg width="100%" height="100%" viewBox="0 0 1067 800" version="1.1" xmlns="http://www.w3.org/2000/svg" xmlns:xlink="http://www.w3.org/1999/xlink" xml:space="preserve" xmlns:serif="http://www.serif.com/" style="fill-rule:evenodd;clip-rule:evenodd;stroke-linejoin:round;stroke-miterlimit:2;">
    <g transform="matrix(0.999957,0,0,0.999957,533.333,400)">
        <g id="ncab_logo.svg" transform="matrix(1.62159,0,0,1.62159,1.48818e-13,3.14224e-14)">
            <g transform="matrix(1,0,0,1,-232.488,-81.1855)">
                <clipPath id="_clip1">
                    <rect x="0" y="0" width="464.975" height="162.371"/>
                </clipPath>
                <g clip-path="url(#_clip1)">
                    <g transform="matrix(1,0,0,1,-4.62,-5.43)">
                        <path d="M134.92,164.2C133.484,165.641 131.594,166.543 129.57,166.75L209.52,166.75L209.52,131.09L168,131.09L134.92,164.2Z" style="fill:rgb(91,172,38);fill-rule:nonzero;"/>
                    </g>
                    <g transform="matrix(1,0,0,1,-4.62,-5.43)">
                        <path d="M117.15,128.41C115.486,130.083 113.219,131.02 110.86,131.01L49.48,131.01L49.48,149.01L125,149.01L158.11,115.91C159.777,114.241 162.041,113.302 164.4,113.3L209.56,113.3L209.56,95.68L149.59,95.68L117.15,128.41Z" style="fill:rgb(91,172,38);fill-rule:nonzero;"/>
                    </g>
                    <g transform="matrix(1,0,0,1,-4.62,-5.43)">
                        <path d="M129.44,6.74C131.508,6.928 133.448,7.826 134.93,9.28L168,42.39L209.49,42.39L209.49,6.74L129.44,6.74Z" style="fill:rgb(91,172,38);fill-rule:nonzero;"/>
                    </g>
                    <g transform="matrix(1,0,0,1,-4.62,-5.43)">
                        <path d="M158.07,57.57L125,24.47L49.48,24.47L49.48,41.34L110.91,41.34C113.333,41.342 115.652,42.332 117.33,44.08L150.33,77.91L209.55,77.91L209.55,60.17L164.36,60.17C162.003,60.17 159.739,59.234 158.07,57.57Z" style="fill:rgb(91,172,38);fill-rule:nonzero;"/>
                    </g>
                    <g transform="matrix(1,0,0,1,-4.62,-5.43)">
                        <path d="M354.63,79.28L352.43,63.28L339.8,63.28L337.68,78.8L337.61,79.26L324.52,79.26L338,6.15L354.26,6.15L367.74,79.28L354.63,79.28ZM350.48,51.47L346.12,23.85L341.76,51.47L350.48,51.47Z" style="fill:rgb(30,30,30);fill-rule:nonzero;"/>
                    </g>
                    <g transform="matrix(1,0,0,1,-4.62,-5.43)">
                        <path d="M301.78,47.68L301.78,61C301.78,63.64 301.38,65.51 300.47,66.66C299.56,67.81 298.16,68.41 295.76,68.43C293.36,68.45 291.92,67.82 291.03,66.66C290.14,65.5 289.71,63.66 289.73,61L289.73,24.65C289.73,22.01 290.13,20.13 291.03,18.98C291.93,17.83 293.35,17.23 295.76,17.23C298.17,17.23 299.59,17.84 300.47,18.98C301.35,20.12 301.78,21.98 301.78,24.65L301.78,35.45L315.17,35.45L315.17,24.36C315.17,19.17 313.64,14.44 310.43,10.99C307.22,7.54 302.33,5.43 295.77,5.43C289.21,5.43 284.29,7.54 281.08,11C277.87,14.46 276.33,19.18 276.33,24.37L276.33,61.37C276.33,66.51 277.85,71.26 281.08,74.72C284.31,78.18 289.19,80.28 295.76,80.27C302.32,80.27 307.2,78.16 310.41,74.72C313.627,71.034 315.322,66.259 315.15,61.37L315.15,47.68L301.78,47.68Z" style="fill:rgb(30,30,30);fill-rule:nonzero;"/>
                    </g>
                    <g transform="matrix(1,0,0,1,-4.62,-5.43)">
                        <path d="M265.13,125.39L245.13,125.39L245.13,136L251.77,136L251.77,148.08C251.77,150.72 251.36,152.59 250.47,153.74C249.58,154.89 248.15,155.48 245.74,155.5C243.33,155.52 241.92,154.89 241.01,153.74C240.1,152.59 239.71,150.74 239.71,148.08L239.71,111.74C239.71,109.11 240.12,107.22 241.01,106.08C241.9,104.94 243.34,104.31 245.74,104.31C248.14,104.31 249.57,104.93 250.47,106.08C251.37,107.23 251.77,109.08 251.77,111.74L251.77,117.6L265.15,117.6L265.15,111.44C265.15,106.26 263.63,101.54 260.41,98.08C257.19,94.62 252.3,92.53 245.73,92.53C239.16,92.53 234.24,94.63 231,98.08C227.76,101.53 226.27,106.26 226.27,111.44L226.27,148.44C226.27,153.62 227.79,158.35 231,161.82C234.21,165.29 239.11,167.38 245.68,167.37C252.24,167.37 257.12,165.25 260.33,161.82C263.54,158.39 265.07,153.62 265.07,148.44L265.07,136L265.13,125.39Z" style="fill:rgb(30,30,30);fill-rule:nonzero;"/>
                    </g>
                    <g transform="matrix(1,0,0,1,-4.62,-5.43)">
                        <path d="M253.46,79.17L238.46,36.35L238.46,79.17L226.81,79.17L226.81,78.64L226.81,79.17L226.27,79.17L226.27,6.34L238.61,6.34L252.91,45.46L252.91,6.34L265.1,6.34L265.1,79.17L253.46,79.17Z" style="fill:rgb(30,30,30);fill-rule:nonzero;"/>
                    </g>
                    <g transform="matrix(1,0,0,1,-4.62,-5.43)">
                        <path d="M407.7,40.92C413.17,38.13 415.51,31.83 415.51,25.92C415.51,19.71 414.03,14.83 410.78,11.47C407.53,8.11 402.59,6.4 395.91,6.4L377.08,6.4L377.08,79.21L397.08,79.21C404.17,79.21 409.17,76.91 412.36,73.07C415.55,69.23 416.85,63.91 416.85,57.92C416.94,49.07 413.49,43.87 407.7,40.92ZM390.46,17.6L394.6,17.6C399.78,17.67 402.05,20.67 402.13,27.22C402.13,32.95 398.81,35.78 394.41,35.83L390.46,35.83L390.46,17.6ZM401.61,65.45C400.32,67.14 398.28,68.01 395.1,68.03L390.46,68.03L390.46,47L393.91,47C397.52,47 399.85,47.9 401.35,49.58C402.85,51.26 403.52,53.89 403.52,57.5C403.52,61.11 402.93,63.74 401.62,65.45L401.61,65.45Z" style="fill:rgb(30,30,30);fill-rule:nonzero;"/>
                    </g>
                    <g transform="matrix(1,0,0,1,-4.62,-5.43)">
                        <path d="M304,166.33L295.26,136.66C293.78,136.79 291.71,136.89 289.82,136.9L289.82,166.32L276.4,166.32L276.4,93.52L294.23,93.52C301.23,93.52 306.58,95 310.23,98.52C313.87,102.05 315.65,107.52 315.65,115.22C315.65,126.51 311.35,131.51 307.14,133.6L317.64,166.34L304,166.33ZM293.66,125.71C296.95,125.71 299.03,125.1 300.33,123.59C301.64,122.09 302.33,119.45 302.28,115.21C302.28,110.99 301.64,108.36 300.33,106.84C299.03,105.34 296.95,104.72 293.66,104.72L289.82,104.72L289.82,125.72L293.66,125.71Z" style="fill:rgb(30,30,30);fill-rule:nonzero;"/>
                    </g>
                    <g transform="matrix(1,0,0,1,-4.62,-5.43)">
                        <path d="M346.15,167.34C339.57,167.34 334.69,165.23 331.48,161.79C328.26,158.32 326.74,153.59 326.74,148.41L326.74,111.41C326.74,106.23 328.25,101.51 331.48,98.05C334.69,94.6 339.57,92.5 346.15,92.5C352.72,92.5 357.61,94.59 360.82,98.05C364.03,101.51 365.57,106.23 365.57,111.41L365.57,148.41C365.57,153.59 364.03,158.32 360.82,161.79C357.61,165.22 352.72,167.34 346.17,167.34L346.15,167.34ZM341.43,153.78C342.33,154.93 343.74,155.52 346.15,155.54C348.56,155.54 349.98,154.93 350.87,153.78C351.77,152.63 352.18,150.78 352.18,148.12L352.18,111.74C352.18,109.11 351.78,107.22 350.87,106.08C349.98,104.93 348.56,104.31 346.15,104.31C343.74,104.31 342.32,104.93 341.43,106.08C340.53,107.22 340.12,109.08 340.12,111.74L340.12,148.12C340.12,150.76 340.54,152.63 341.43,153.78Z" style="fill:rgb(30,30,30);fill-rule:nonzero;"/>
                    </g>
                    <g transform="matrix(1,0,0,1,-4.62,-5.43)">
                        <path d="M396.71,167.34C390.71,167.34 385.87,165.62 382.49,162.25C379.12,158.91 377.29,153.97 377.3,147.71L377.3,93.52L390.68,93.52L390.68,148.22C390.77,153.37 392.49,155.46 396.68,155.54C400.9,155.46 402.62,153.37 402.68,148.22L402.68,93.52L416.06,93.52L416.06,147.72C416.06,153.98 414.24,158.91 410.86,162.26C407.49,165.63 402.62,167.35 396.67,167.35L396.71,167.34Z" style="fill:rgb(30,30,30);fill-rule:nonzero;"/>
                    </g>
                    <g transform="matrix(1,0,0,1,-4.62,-5.43)">
                        <path d="M427.87,166.33L427.87,165.8L427.87,166.33L427.35,166.33L427.35,93.52L445.56,93.52C453.22,93.52 458.93,94.99 462.75,98.52C466.57,102.04 468.35,107.52 468.35,115.23C468.35,122.96 466.58,128.42 462.75,131.95C458.93,135.47 453.22,136.95 445.56,136.95L440.72,136.95L440.72,166.37L427.87,166.33ZM445,125.71C449,125.71 451.45,125.1 452.91,123.57C454.37,122.07 455.01,119.45 455.01,115.21C455.01,110.99 454.38,108.37 452.91,106.85C451.45,105.34 449,104.71 445,104.71L440.76,104.71L440.76,125.71L445,125.71Z" style="fill:rgb(30,30,30);fill-rule:nonzero;"/>
                    </g>
                    <g transform="matrix(1,0,0,1,-4.62,-5.43)">
                        <path d="M107.14,59.14L52.34,59.14C66.111,60.544 76.71,72.277 76.71,86.12C76.71,100.998 64.468,113.24 49.59,113.24C49.553,113.24 49.517,113.24 49.48,113.24L107.18,113.24L133.77,86.36L107.14,59.14Z" style="fill:rgb(91,172,38);fill-rule:nonzero;"/>
                    </g>
                    <g transform="matrix(1,0,0,1,-4.62,-5.43)">
                        <path d="M59.27,86.11C59.265,91.466 54.856,95.87 49.5,95.87C44.14,95.87 39.73,91.46 39.73,86.1C39.73,80.748 44.128,76.341 49.48,76.33C49.483,76.33 49.487,76.33 49.49,76.33C54.855,76.33 59.27,80.745 59.27,86.11C59.27,86.11 59.27,86.11 59.27,86.11Z" style="fill:rgb(232,81,39);fill-rule:nonzero;"/>
                    </g>
                    <g transform="matrix(1,0,0,1,-4.62,-5.43)">
                        <path d="M158.07,115.91L125,149L49.48,149L49.48,166.74L128.64,166.74C130.996,166.747 133.259,165.81 134.92,164.14L168,131.09L209.49,131.09L209.49,113.31L164.36,113.31C162.003,113.309 159.739,114.245 158.07,115.91ZM168.07,42.39L134.93,9.27C133.252,7.621 130.992,6.695 128.64,6.69L49.48,6.69L49.48,24.47L125,24.47L158.11,57.57C159.781,59.231 162.044,60.162 164.4,60.16L209.56,60.16L209.56,42.39L168.07,42.39ZM117.38,44.08C115.702,42.332 113.383,41.342 110.96,41.34L49.48,41.34C24.69,41.41 4.62,61 4.62,85.79C4.609,110.509 24.881,130.885 49.6,131L110.87,131C113.229,131.01 115.496,130.073 117.16,128.4L149.6,95.68L209.53,95.68L209.53,77.91L150.3,77.91L117.38,44.08ZM107.23,113.24L49.48,113.24C34.564,113.034 22.404,100.708 22.4,85.79C22.4,70.79 34.57,59.14 49.6,59.12L107.14,59.12L133.78,86.33L107.23,113.24Z" style="fill:rgb(30,30,30);fill-rule:nonzero;"/>
                    </g>
                </g>
            </g>
            <g>
            </g>
        </g>
    </g>
</svg>
