<?xml version="1.0" encoding="UTF-8" standalone="no"?>
<!DOCTYPE svg PUBLIC "-//W3C//DTD SVG 1.1//EN" "http://www.w3.org/Graphics/SVG/1.1/DTD/svg11.dtd">
<svg width="100%" height="100%" viewBox="0 0 235 176" version="1.1" xmlns="http://www.w3.org/2000/svg" xmlns:xlink="http://www.w3.org/1999/xlink" xml:space="preserve" xmlns:serif="http://www.serif.com/" style="fill-rule:evenodd;clip-rule:evenodd;stroke-linejoin:round;stroke-miterlimit:2;">
    <g transform="matrix(0.153753,0,0,0.153753,117.5,88)">
        <g id="Safety-Chair-Logo.eps" serif:id="Safety Chair Logo.eps" transform="matrix(1,0,0,1,-620.833,-252.083)">
            <clipPath id="_clip1">
                <rect x="0" y="0" width="1241.67" height="504.167"/>
            </clipPath>
            <g clip-path="url(#_clip1)">
                <g transform="matrix(4.16667,0,0,4.16667,0,0)">
                    <rect x="0" y="0.528" width="297.638" height="120.472" style="fill:rgb(255,242,0);fill-rule:nonzero;"/>
                    <rect x="36" y="0.529" width="225.638" height="85.039" style="fill:rgb(0,134,66);fill-rule:nonzero;"/>
                    <path d="M59.854,56.84C57.323,56.84 54.319,56.432 51.639,55.821L51.639,60.101C53.997,60.611 56.479,60.917 59.085,60.917L59.978,60.917C66.307,60.917 68.144,58.318 68.144,55.413L68.144,55.082C68.144,50.062 62.435,49.883 60.078,49.832C57.273,49.756 56.181,49.577 56.181,48.354C56.181,47.768 56.429,46.927 60.028,46.927C62.46,46.927 64.818,47.284 67.226,47.87L67.226,43.666C65.19,43.131 63.006,42.825 60.748,42.825L59.854,42.825C53.55,42.825 51.713,45.424 51.713,48.354L51.713,48.686C51.713,53.655 57.223,53.833 59.755,53.909C62.634,53.986 63.676,54.164 63.676,55.362C63.676,55.999 63.403,56.84 59.854,56.84ZM72.164,60.407L73.579,57.095L81.943,57.095L83.383,60.407L87.403,60.407L87.403,59.388L80.007,43.334L75.54,43.334L68.144,59.388L68.144,60.407L72.164,60.407ZM75.242,53.272L77.773,47.437L80.305,53.272L75.242,53.272ZM104.554,43.334L88.644,43.334L88.644,60.407L93.112,60.407L93.112,54.037L102.072,54.037L102.072,49.96L93.112,49.96L93.112,47.411L104.554,47.411L104.554,43.334ZM121.927,43.334L106.018,43.334L106.018,60.407L121.927,60.407L121.927,56.33L110.486,56.33L110.486,54.037L119.445,54.037L119.445,49.96L110.486,49.96L110.486,47.411L121.927,47.411L121.927,43.334ZM133.816,60.407L133.816,47.411L140.294,47.411L140.294,43.334L122.895,43.334L122.895,47.411L129.348,47.411L129.348,60.407L133.816,60.407ZM147.044,60.407L151.512,60.407L151.512,54.062L158.015,44.354L158.015,43.334L153.646,43.334L149.278,50.418L144.935,43.334L140.542,43.334L140.542,44.354L147.044,54.062L147.044,60.407ZM164.964,52.533C164.964,57.146 166.924,60.917 173.948,60.917L174.842,60.917C177.076,60.917 179.21,60.611 181.245,60.101L181.245,55.922C178.962,56.61 176.405,56.891 174.718,56.891C169.53,56.891 169.53,54.776 169.53,51.871C169.53,48.966 169.53,46.876 174.718,46.876C176.405,46.876 178.962,47.131 181.245,47.819L181.245,43.666C179.21,43.131 177.076,42.825 174.842,42.825L173.948,42.825C166.924,42.825 164.964,46.596 164.964,51.208L164.964,52.533ZM182.486,43.334L182.486,60.407L186.954,60.407L186.954,54.037L195.64,54.037L195.64,60.407L200.108,60.407L200.108,43.334L195.64,43.334L195.64,49.96L186.954,49.96L186.954,43.334L182.486,43.334ZM205.121,60.407L206.536,57.095L214.9,57.095L216.34,60.407L220.36,60.407L220.36,59.388L212.964,43.334L208.497,43.334L201.1,59.388L201.1,60.407L205.121,60.407ZM208.199,53.272L210.73,47.437L213.262,53.272L208.199,53.272ZM221.601,43.334L221.601,60.407L226.069,60.407L226.069,43.334L221.601,43.334ZM245.179,60.407L245.179,59.388L242.102,54.394C244.236,53.451 244.931,51.591 244.931,49.45L244.931,48.431C244.931,45.347 243.392,42.825 237.833,42.825L237.138,42.825C234.135,42.825 230.883,43.003 228.054,43.334L228.054,60.407L232.521,60.407L232.521,54.801C234.11,55.056 235.773,55.056 237.535,55.056L240.861,60.407L245.179,60.407ZM237.187,46.902C240.439,46.902 240.464,47.743 240.464,48.66C240.464,50.265 240.389,50.979 236.418,50.979C235.574,50.979 234.06,50.953 232.521,50.75L232.521,47.131C234.16,46.978 236.046,46.902 237.187,46.902Z" style="fill:rgb(255,242,0);fill-rule:nonzero;"/>
                    <path d="M93.271,73.598L90.075,73.598L90.075,71.052L92.848,71.052L92.848,70.267L90.075,70.267L90.075,67.71L93.216,67.71L93.216,66.925L89.197,66.925L89.197,74.383L93.271,74.383L93.271,73.598Z" style="fill:white;fill-rule:nonzero;"/>
                    <path d="M96.38,72.17L97.712,74.383L98.698,74.383L96.856,71.517L98.633,68.762L97.658,68.762L96.401,70.864L95.156,68.762L94.17,68.762L95.903,71.506L94.061,74.383L95.004,74.383L96.38,72.17Z" style="fill:white;fill-rule:nonzero;"/>
                    <path d="M103.324,70.045C103.617,70.422 103.757,70.931 103.757,71.584C103.757,72.237 103.606,72.746 103.313,73.111C103.021,73.487 102.652,73.675 102.23,73.675C101.797,73.675 101.417,73.509 101.092,73.166C100.767,72.823 100.605,72.292 100.605,71.562C100.605,70.831 100.767,70.3 101.092,69.968C101.407,69.647 101.786,69.481 102.23,69.481C102.674,69.481 103.032,69.669 103.324,70.045ZM100.605,73.531C101.006,74.162 101.558,74.472 102.273,74.472C102.977,74.472 103.552,74.195 103.996,73.642C104.429,73.1 104.646,72.403 104.646,71.562C104.646,70.732 104.44,70.034 104.028,69.492C103.606,68.95 103.032,68.684 102.295,68.684C101.547,68.684 100.984,68.994 100.605,69.625L100.605,68.773L99.76,68.773L99.76,76.564L100.605,76.564L100.605,73.531Z" style="fill:white;fill-rule:nonzero;"/>
                    <path d="M109.402,70.997L109.402,71.218L106.455,71.218C106.509,70.654 106.672,70.222 106.964,69.924C107.257,69.625 107.614,69.47 108.037,69.47C108.459,69.47 108.784,69.603 109.033,69.879C109.283,70.156 109.402,70.532 109.402,70.997ZM109.911,74.096L109.911,73.277C109.543,73.531 109.066,73.664 108.481,73.664C107.885,73.664 107.419,73.52 107.073,73.222C106.726,72.923 106.52,72.502 106.455,71.949L110.203,71.949C110.236,71.75 110.258,71.528 110.258,71.296C110.258,70.466 110.052,69.835 109.651,69.381C109.25,68.928 108.698,68.706 107.993,68.706C107.289,68.706 106.715,68.961 106.26,69.481C105.805,70.001 105.577,70.687 105.577,71.562C105.577,72.436 105.838,73.133 106.347,73.653C106.856,74.173 107.517,74.439 108.351,74.439C108.968,74.439 109.488,74.328 109.911,74.096Z" style="fill:white;fill-rule:nonzero;"/>
                    <path d="M112.403,71.318C112.403,70.842 112.533,70.433 112.782,70.068C113.031,69.702 113.356,69.525 113.735,69.525C113.898,69.525 114.049,69.547 114.201,69.603L114.201,68.74C114.125,68.728 114.028,68.717 113.898,68.717C113.194,68.717 112.695,69.06 112.403,69.758L112.403,68.773L111.558,68.773L111.547,74.383L112.403,74.383L112.403,71.318Z" style="fill:white;fill-rule:nonzero;"/>
                    <path d="M117.841,74.24L117.841,73.41C117.624,73.576 117.375,73.664 117.094,73.664C116.541,73.664 116.27,73.365 116.27,72.768L116.27,69.481L117.787,69.481L117.787,68.773L116.27,68.773L116.27,67.378L115.414,67.378L115.414,68.773L114.537,68.773L114.537,69.481L115.414,69.481L115.414,72.746C115.414,73.874 115.956,74.439 117.039,74.439C117.332,74.439 117.603,74.372 117.841,74.24Z" style="fill:white;fill-rule:nonzero;"/>
                    <path d="M120.138,70.853C119.997,70.754 119.9,70.654 119.845,70.554C119.791,70.455 119.77,70.322 119.77,70.145C119.77,69.979 119.856,69.824 120.03,69.68C120.192,69.547 120.42,69.481 120.712,69.481C121.286,69.481 121.741,69.581 122.077,69.791L122.077,68.961C121.73,68.795 121.286,68.717 120.745,68.717C120.203,68.717 119.759,68.85 119.423,69.127C119.076,69.404 118.903,69.769 118.903,70.2C118.903,70.643 119.033,70.986 119.282,71.23C119.531,71.473 119.867,71.683 120.3,71.849C120.723,72.026 121.037,72.192 121.232,72.336C121.416,72.48 121.514,72.679 121.514,72.923C121.514,73.177 121.427,73.365 121.254,73.498C121.08,73.631 120.831,73.697 120.495,73.697C119.943,73.697 119.423,73.554 118.935,73.255L118.935,74.107C119.347,74.339 119.867,74.45 120.485,74.45C121.102,74.45 121.568,74.306 121.904,74.029C122.229,73.753 122.391,73.388 122.391,72.934C122.391,72.491 122.261,72.148 122.001,71.905C121.741,71.661 121.405,71.451 121.005,71.274C120.604,71.108 120.311,70.964 120.138,70.853Z" style="fill:white;fill-rule:nonzero;"/>
                    <path d="M126.66,66.438C126.497,66.438 126.367,66.493 126.27,66.604C126.161,66.714 126.107,66.847 126.107,67.013C126.107,67.179 126.161,67.312 126.27,67.412C126.367,67.522 126.497,67.578 126.66,67.578C126.822,67.578 126.952,67.522 127.061,67.412C127.169,67.312 127.223,67.179 127.223,67.013C127.223,66.847 127.169,66.714 127.061,66.604C126.952,66.493 126.822,66.438 126.66,66.438ZM127.093,68.773L126.237,68.773L126.237,74.383L127.093,74.383L127.093,68.773Z" style="fill:white;fill-rule:nonzero;"/>
                    <path d="M133.052,70.521C133.052,69.968 132.889,69.525 132.575,69.193C132.261,68.861 131.827,68.695 131.296,68.695C130.462,68.695 129.888,69.049 129.563,69.747L129.563,68.773L128.718,68.773L128.718,74.383L129.563,74.383L129.563,71.318C129.563,70.743 129.715,70.289 130.018,69.968C130.311,69.647 130.646,69.481 131.026,69.481C131.394,69.481 131.686,69.592 131.892,69.802C132.098,70.023 132.196,70.344 132.196,70.754L132.196,74.383L133.052,74.383L133.052,70.521Z" style="fill:white;fill-rule:nonzero;"/>
                    <path d="M138.262,70.853C138.122,70.754 138.024,70.654 137.97,70.554C137.916,70.455 137.894,70.322 137.894,70.145C137.894,69.979 137.981,69.824 138.154,69.68C138.317,69.547 138.544,69.481 138.837,69.481C139.411,69.481 139.866,69.581 140.202,69.791L140.202,68.961C139.855,68.795 139.411,68.717 138.869,68.717C138.327,68.717 137.883,68.85 137.547,69.127C137.201,69.404 137.027,69.769 137.027,70.2C137.027,70.643 137.157,70.986 137.407,71.23C137.656,71.473 137.992,71.683 138.425,71.849C138.848,72.026 139.162,72.192 139.357,72.336C139.541,72.48 139.638,72.679 139.638,72.923C139.638,73.177 139.552,73.365 139.378,73.498C139.205,73.631 138.956,73.697 138.62,73.697C138.067,73.697 137.547,73.554 137.06,73.255L137.06,74.107C137.472,74.339 137.992,74.45 138.609,74.45C139.227,74.45 139.693,74.306 140.028,74.029C140.353,73.753 140.516,73.388 140.516,72.934C140.516,72.491 140.386,72.148 140.126,71.905C139.866,71.661 139.53,71.451 139.129,71.274C138.728,71.108 138.436,70.964 138.262,70.853Z" style="fill:white;fill-rule:nonzero;"/>
                    <path d="M144.643,73.72L144.643,74.383L145.488,74.383L145.488,70.831C145.488,69.404 144.795,68.684 143.419,68.684C142.748,68.684 142.206,68.817 141.794,69.072L141.794,69.946C142.249,69.625 142.737,69.47 143.268,69.47C143.788,69.47 144.145,69.581 144.34,69.802C144.535,70.034 144.633,70.366 144.633,70.809L144.633,71.097L143.636,71.097C142.943,71.097 142.401,71.241 142,71.539C141.599,71.838 141.393,72.248 141.393,72.746C141.393,73.255 141.556,73.664 141.87,73.974C142.184,74.284 142.596,74.439 143.105,74.439C143.853,74.439 144.362,74.195 144.643,73.72ZM142.639,72.071C142.867,71.882 143.213,71.794 143.679,71.794L144.633,71.794L144.633,72.513C144.633,72.856 144.513,73.144 144.286,73.365C144.058,73.598 143.755,73.708 143.387,73.708C143.018,73.708 142.748,73.62 142.563,73.443C142.379,73.277 142.293,73.044 142.293,72.768C142.293,72.491 142.412,72.259 142.639,72.071Z" style="fill:white;fill-rule:nonzero;"/>
                    <path d="M149.551,68.773L148.338,68.773L148.338,68.264C148.338,67.921 148.414,67.677 148.565,67.511C148.706,67.345 148.879,67.268 149.074,67.268C149.269,67.268 149.454,67.301 149.627,67.356L149.627,66.559C149.443,66.504 149.269,66.482 149.096,66.482C148.587,66.482 148.197,66.637 147.915,66.958C147.623,67.279 147.482,67.71 147.482,68.253L147.482,68.773L146.539,68.773L146.539,69.481L147.482,69.481L147.482,74.383L148.338,74.383L148.338,69.481L149.551,69.481L149.551,68.773Z" style="fill:white;fill-rule:nonzero;"/>
                    <path d="M154.069,70.997L154.069,71.218L151.122,71.218C151.176,70.654 151.339,70.222 151.631,69.924C151.924,69.625 152.281,69.47 152.704,69.47C153.126,69.47 153.451,69.603 153.7,69.879C153.95,70.156 154.069,70.532 154.069,70.997ZM154.578,74.096L154.578,73.277C154.21,73.531 153.733,73.664 153.148,73.664C152.552,73.664 152.086,73.52 151.739,73.222C151.393,72.923 151.187,72.502 151.122,71.949L154.87,71.949C154.903,71.75 154.925,71.528 154.925,71.296C154.925,70.466 154.719,69.835 154.318,69.381C153.917,68.928 153.365,68.706 152.66,68.706C151.956,68.706 151.382,68.961 150.927,69.481C150.472,70.001 150.244,70.687 150.244,71.562C150.244,72.436 150.504,73.133 151.014,73.653C151.523,74.173 152.184,74.439 153.018,74.439C153.635,74.439 154.155,74.328 154.578,74.096Z" style="fill:white;fill-rule:nonzero;"/>
                    <path d="M162.367,70.997L162.367,71.218L159.42,71.218C159.475,70.654 159.637,70.222 159.93,69.924C160.222,69.625 160.58,69.47 161.002,69.47C161.425,69.47 161.75,69.603 161.999,69.879C162.248,70.156 162.367,70.532 162.367,70.997ZM162.876,74.096L162.876,73.277C162.508,73.531 162.031,73.664 161.446,73.664C160.851,73.664 160.385,73.52 160.038,73.222C159.691,72.923 159.486,72.502 159.42,71.949L163.169,71.949C163.201,71.75 163.223,71.528 163.223,71.296C163.223,70.466 163.017,69.835 162.616,69.381C162.216,68.928 161.663,68.706 160.959,68.706C160.255,68.706 159.681,68.961 159.225,69.481C158.77,70.001 158.543,70.687 158.543,71.562C158.543,72.436 158.803,73.133 159.312,73.653C159.821,74.173 160.482,74.439 161.316,74.439C161.934,74.439 162.454,74.328 162.876,74.096Z" style="fill:white;fill-rule:nonzero;"/>
                    <path d="M168.932,68.773L168.044,68.773L167.264,71.141C166.787,72.524 166.517,73.376 166.452,73.697L164.891,68.773L164.003,68.773L165.921,74.383L166.972,74.383L168.932,68.773Z" style="fill:white;fill-rule:nonzero;"/>
                    <path d="M172.963,73.72L172.963,74.383L173.808,74.383L173.808,70.831C173.808,69.404 173.114,68.684 171.738,68.684C171.067,68.684 170.525,68.817 170.113,69.072L170.113,69.946C170.568,69.625 171.056,69.47 171.587,69.47C172.107,69.47 172.464,69.581 172.659,69.802C172.854,70.034 172.952,70.366 172.952,70.809L172.952,71.097L171.955,71.097C171.262,71.097 170.72,71.241 170.319,71.539C169.918,71.838 169.712,72.248 169.712,72.746C169.712,73.255 169.875,73.664 170.189,73.974C170.503,74.284 170.915,74.439 171.424,74.439C172.172,74.439 172.681,74.195 172.963,73.72ZM170.958,72.071C171.186,71.882 171.532,71.794 171.998,71.794L172.952,71.794L172.952,72.513C172.952,72.856 172.832,73.144 172.605,73.365C172.377,73.598 172.074,73.708 171.706,73.708C171.337,73.708 171.067,73.62 170.882,73.443C170.698,73.277 170.612,73.044 170.612,72.768C170.612,72.491 170.731,72.259 170.958,72.071Z" style="fill:white;fill-rule:nonzero;"/>
                    <path d="M179.105,74.184L179.105,73.354C178.748,73.598 178.358,73.72 177.935,73.72C177.285,73.72 176.787,73.52 176.429,73.111C176.072,72.712 175.898,72.214 175.898,71.606C175.888,70.997 176.072,70.488 176.451,70.079C176.819,69.669 177.318,69.47 177.935,69.47C178.379,69.47 178.769,69.581 179.105,69.813L179.105,68.983C178.737,68.773 178.314,68.673 177.848,68.673C176.971,68.673 176.278,68.961 175.768,69.536C175.259,70.112 174.999,70.798 174.999,71.606C174.999,72.414 175.259,73.089 175.768,73.653C176.278,74.217 176.96,74.505 177.827,74.505C178.336,74.505 178.758,74.395 179.105,74.184Z" style="fill:white;fill-rule:nonzero;"/>
                    <path d="M184.695,68.773L183.839,68.773L183.839,71.86C183.839,72.414 183.709,72.856 183.439,73.177C183.168,73.498 182.832,73.664 182.431,73.664C182.03,73.664 181.727,73.554 181.521,73.343C181.315,73.133 181.218,72.823 181.218,72.414L181.218,68.773L180.362,68.773L180.362,72.635C180.362,73.188 180.524,73.631 180.839,73.952C181.153,74.284 181.575,74.45 182.117,74.45C182.973,74.45 183.547,74.107 183.839,73.41L183.839,74.383L184.695,74.383L184.695,68.773Z" style="fill:white;fill-rule:nonzero;"/>
                    <path d="M189.245,73.72L189.245,74.383L190.09,74.383L190.09,70.831C190.09,69.404 189.397,68.684 188.021,68.684C187.35,68.684 186.808,68.817 186.396,69.072L186.396,69.946C186.851,69.625 187.339,69.47 187.87,69.47C188.39,69.47 188.747,69.581 188.942,69.802C189.137,70.034 189.235,70.366 189.235,70.809L189.235,71.097L188.238,71.097C187.545,71.097 187.003,71.241 186.602,71.539C186.201,71.838 185.995,72.248 185.995,72.746C185.995,73.255 186.158,73.664 186.472,73.974C186.786,74.284 187.198,74.439 187.707,74.439C188.455,74.439 188.964,74.195 189.245,73.72ZM187.241,72.071C187.469,71.882 187.815,71.794 188.281,71.794L189.235,71.794L189.235,72.513C189.235,72.856 189.115,73.144 188.888,73.365C188.66,73.598 188.357,73.708 187.989,73.708C187.62,73.708 187.35,73.62 187.165,73.443C186.981,73.277 186.895,73.044 186.895,72.768C186.895,72.491 187.014,72.259 187.241,72.071Z" style="fill:white;fill-rule:nonzero;"/>
                    <path d="M194.359,74.24L194.359,73.41C194.142,73.576 193.893,73.664 193.611,73.664C193.059,73.664 192.788,73.365 192.788,72.768L192.788,69.481L194.305,69.481L194.305,68.773L192.788,68.773L192.788,67.378L191.932,67.378L191.932,68.773L191.055,68.773L191.055,69.481L191.932,69.481L191.932,72.746C191.932,73.874 192.474,74.439 193.557,74.439C193.85,74.439 194.121,74.372 194.359,74.24Z" style="fill:white;fill-rule:nonzero;"/>
                    <path d="M196.071,66.438C195.908,66.438 195.778,66.493 195.681,66.604C195.572,66.714 195.518,66.847 195.518,67.013C195.518,67.179 195.572,67.312 195.681,67.412C195.778,67.522 195.908,67.578 196.071,67.578C196.233,67.578 196.363,67.522 196.471,67.412C196.58,67.312 196.634,67.179 196.634,67.013C196.634,66.847 196.58,66.714 196.471,66.604C196.363,66.493 196.233,66.438 196.071,66.438ZM196.504,68.773L195.648,68.773L195.648,74.383L196.504,74.383L196.504,68.773Z" style="fill:white;fill-rule:nonzero;"/>
                    <path d="M201.65,70.068C201.932,70.477 202.072,70.975 202.072,71.584C202.072,72.192 201.921,72.701 201.628,73.1C201.336,73.509 200.924,73.708 200.393,73.708C199.862,73.708 199.451,73.498 199.147,73.089C198.844,72.679 198.692,72.181 198.692,71.595C198.692,71.008 198.844,70.499 199.136,70.09C199.429,69.68 199.851,69.47 200.404,69.47C200.957,69.47 201.368,69.669 201.65,70.068ZM198.519,69.525C198.042,70.09 197.804,70.776 197.804,71.606C197.804,72.436 198.031,73.122 198.497,73.664C198.952,74.206 199.581,74.483 200.382,74.483C201.173,74.483 201.802,74.206 202.267,73.664C202.733,73.122 202.961,72.425 202.961,71.584C202.961,70.754 202.733,70.056 202.289,69.514C201.834,68.972 201.206,68.695 200.415,68.695C199.624,68.695 198.985,68.972 198.519,69.525Z" style="fill:white;fill-rule:nonzero;"/>
                    <path d="M208.551,70.521C208.551,69.968 208.388,69.525 208.074,69.193C207.76,68.861 207.327,68.695 206.796,68.695C205.962,68.695 205.387,69.049 205.062,69.747L205.062,68.773L204.217,68.773L204.217,74.383L205.062,74.383L205.062,71.318C205.062,70.743 205.214,70.289 205.517,69.968C205.81,69.647 206.146,69.481 206.525,69.481C206.893,69.481 207.186,69.592 207.392,69.802C207.598,70.023 207.695,70.344 207.695,70.754L207.695,74.383L208.551,74.383L208.551,70.521Z" style="fill:white;fill-rule:nonzero;"/>
                </g>
            </g>
        </g>
        <g id="Safety-Chair-Logo.eps1" serif:id="Safety Chair Logo.eps">
        </g>
    </g>
</svg>
