<?xml version="1.0" encoding="UTF-8" standalone="no"?>
<!DOCTYPE svg PUBLIC "-//W3C//DTD SVG 1.1//EN" "http://www.w3.org/Graphics/SVG/1.1/DTD/svg11.dtd">
<svg width="100%" height="100%" viewBox="0 0 1067 800" version="1.1" xmlns="http://www.w3.org/2000/svg" xmlns:xlink="http://www.w3.org/1999/xlink" xml:space="preserve" xmlns:serif="http://www.serif.com/" style="fill-rule:evenodd;clip-rule:evenodd;stroke-linejoin:round;stroke-miterlimit:2;">
    <g transform="matrix(0.999957,0,0,0.999957,533.333,400)">
        <g id="siderise-logo.svg" transform="matrix(1.5446,0,0,1.5446,4.78394e-14,-9.004e-15)">
            <g transform="matrix(1,0,0,1,-312.5,-76.5)">
                <g transform="matrix(4.16667,0,0,4.16667,33.3333,7.75)">
                    <path d="M23.028,6.17C28.906,16.247 27.421,21.705 26.795,23.004C25.898,25.605 22.078,26.467 17.368,26.421L17.103,26.421C13.093,26.46 9.612,25.843 8.234,24.053C9.154,25.343 13.848,29.537 25.291,29.495C30.486,29.477 33.162,27.723 34.5,25.606C35.143,21.703 32.739,15.976 27.195,7.791C23.995,2.522 20.559,0.398 17.236,0.415C17.073,0.414 16.91,0.423 16.746,0.432C18.8,1.033 20.989,2.674 23.028,6.17Z" style="fill:rgb(111,191,84);fill-rule:nonzero;"/>
                    <path d="M3.634,19.721C8.899,10.543 14.48,8.408 16.47,8.081C16.536,8.069 16.601,8.06 16.667,8.051C16.727,8.043 16.781,8.038 16.833,8.032C16.859,8.03 16.885,8.026 16.912,8.024C17.18,8.001 17.328,8.008 17.328,8.008C17.328,8.008 17.18,8.001 16.912,8.024C17.02,8.017 17.128,8.013 17.236,8.013L17.233,8.013L17.238,8.013L17.236,8.013C19.074,8.004 20.974,9.564 22.745,12.478C26.148,17.503 27.538,20.849 26.795,23.004C27.421,21.705 28.906,16.247 23.028,6.17C20.989,2.675 18.8,1.033 16.746,0.433C13.576,0.618 10.32,2.78 7.277,7.791C-0.951,19.938 -1.766,26.673 2.654,30.063C1.274,27.838 0.878,24.525 3.634,19.721Z" style="fill:rgb(8,146,209);fill-rule:nonzero;"/>
                    <path d="M25.291,29.495C13.848,29.536 9.153,25.343 8.234,24.053C6.654,21.999 7.713,18.403 11.727,12.478C13.252,9.966 14.874,8.364 16.47,8.08C14.479,8.408 8.899,10.542 3.634,19.72C0.878,24.524 1.273,27.837 2.653,30.062C5.53,32.267 10.86,33.056 16.996,32.997L17.476,32.997C26.687,33.086 33.568,31.264 34.5,25.606C33.162,27.722 30.486,29.476 25.291,29.495Z" style="fill:rgb(113,111,179);fill-rule:nonzero;"/>
                    <path d="M45.525,18.887C43.64,18.887 42.064,18.549 40.573,17.873L41.529,15.285C42.655,15.82 43.949,16.298 45.272,16.298C47.101,16.298 48.227,15.595 48.227,14.075C48.227,12.865 47.354,12.33 46.088,11.739L43.668,10.613C41.839,9.77 40.544,8.644 40.544,6.139C40.544,3.072 43.218,1.328 46.229,1.328C47.917,1.328 49.043,1.637 50.506,2.228L49.521,4.704C48.536,4.282 47.579,3.86 46.397,3.86C44.822,3.86 43.443,4.451 43.443,5.971C43.443,7.096 44.231,7.575 45.216,8.025L47.72,9.178C49.802,10.135 51.153,11.373 51.153,13.512C51.153,16.607 48.986,18.887 45.525,18.887Z" style="fill:rgb(0,36,84);fill-rule:nonzero;"/>
                    <rect x="53.517" y="1.637" width="3.011" height="16.94" style="fill:rgb(0,36,84);"/>
                    <path d="M64.772,3.973C63.759,3.973 62.999,4.057 62.999,4.057L62.999,15.876L64.35,15.876C68.036,15.876 70.513,13.737 70.513,9.348C70.513,5.718 68.121,3.973 64.772,3.973ZM63.731,18.577L59.988,18.577L59.988,1.778C59.988,1.778 62.408,1.469 64.997,1.469C70.259,1.469 73.636,4.057 73.636,9.066C73.636,15.201 69.809,18.577 63.731,18.577Z" style="fill:rgb(0,36,84);fill-rule:nonzero;"/>
                    <path d="M76.168,18.577L76.168,1.637L84.863,1.637L84.863,4.17L79.151,4.17L79.151,8.672L84.272,8.672L84.272,11.148L79.151,11.148L79.151,16.045L85.201,16.045L85.201,18.577L76.168,18.577Z" style="fill:rgb(0,36,84);fill-rule:nonzero;"/>
                    <path d="M91.73,3.691C91.054,3.691 90.492,3.776 90.492,3.776L90.492,9.572L90.801,9.572C92.828,9.572 94.825,8.672 94.825,6.336C94.825,4.423 93.503,3.691 91.73,3.691ZM96.373,19.027L91.983,11.542C91.589,11.598 91.223,11.627 90.829,11.627L90.492,11.627L90.492,18.577L87.537,18.577L87.537,1.778C87.537,1.778 89.788,1.468 91.983,1.468C95.528,1.468 97.696,3.016 97.696,5.914C97.696,8.194 96.373,9.741 94.6,10.613L99.074,17.846L96.373,19.027Z" style="fill:rgb(0,36,84);fill-rule:nonzero;"/>
                    <rect x="100.818" y="1.637" width="3.011" height="16.94" style="fill:rgb(0,36,84);"/>
                    <path d="M111.287,18.887C109.402,18.887 107.826,18.549 106.334,17.873L107.291,15.285C108.417,15.82 109.711,16.298 111.034,16.298C112.863,16.298 113.988,15.595 113.988,14.075C113.988,12.865 113.116,12.33 111.85,11.739L109.43,10.613C107.6,9.77 106.306,8.644 106.306,6.139C106.306,3.072 108.979,1.328 111.99,1.328C113.679,1.328 114.804,1.637 116.268,2.228L115.283,4.704C114.298,4.282 113.341,3.86 112.159,3.86C110.583,3.86 109.204,4.451 109.204,5.971C109.204,7.096 109.993,7.575 110.977,8.025L113.482,9.178C115.564,10.135 116.915,11.373 116.915,13.512C116.915,16.607 114.748,18.887 111.287,18.887Z" style="fill:rgb(0,36,84);fill-rule:nonzero;"/>
                    <path d="M120.642,18.577L120.642,1.637L129.337,1.637L129.337,4.17L123.625,4.17L123.625,8.672L128.746,8.672L128.746,11.148L123.625,11.148L123.625,16.045L129.675,16.045L129.675,18.577L120.642,18.577Z" style="fill:rgb(0,36,84);fill-rule:nonzero;"/>
                    <path d="M131.803,2.059C131.718,2.059 131.646,2.065 131.646,2.065L131.646,2.795L131.688,2.795C131.942,2.795 132.189,2.681 132.189,2.391C132.189,2.149 132.026,2.059 131.803,2.059ZM132.394,4.002L131.839,3.055C131.791,3.061 131.742,3.061 131.694,3.061L131.646,3.061L131.646,3.942L131.254,3.942L131.254,1.799C131.254,1.799 131.549,1.763 131.827,1.763C132.292,1.763 132.569,1.956 132.569,2.331C132.569,2.62 132.406,2.813 132.183,2.928L132.738,3.821L132.394,4.002ZM131.888,1.359C130.916,1.359 130.354,1.993 130.354,2.904C130.354,3.797 130.964,4.449 131.888,4.449C132.853,4.449 133.414,3.815 133.414,2.904C133.414,2.011 132.804,1.359 131.888,1.359ZM131.888,4.787C130.723,4.787 130.005,4.014 130.005,2.904C130.005,1.818 130.746,1.021 131.888,1.021C133.046,1.021 133.77,1.793 133.77,2.904C133.77,3.99 133.028,4.787 131.888,4.787Z" style="fill:rgb(0,36,84);fill-rule:nonzero;"/>
                    <path d="M44.592,25.007L45.248,25.007L45.175,25.766L45.216,25.766C45.789,25.267 46.351,24.882 46.985,24.882C47.838,24.882 48.182,25.36 48.182,26.141C48.182,26.38 48.161,26.557 48.099,26.838L47.454,30.064L46.663,30.064L47.287,26.942C47.339,26.672 47.37,26.526 47.37,26.349C47.37,25.839 47.141,25.569 46.621,25.569C46.226,25.569 45.737,25.85 45.102,26.484L44.384,30.064L43.593,30.064L44.592,25.007Z" style="fill:rgb(0,36,84);fill-rule:nonzero;"/>
                    <path d="M50.202,25.652L49.463,25.652L49.578,25.059L50.369,25.007L50.743,23.613L51.42,23.613L51.138,25.007L52.418,25.007L52.293,25.652L50.993,25.652L50.4,28.545C50.379,28.669 50.369,28.784 50.369,28.92C50.369,29.336 50.535,29.544 51.014,29.544C51.211,29.544 51.388,29.461 51.544,29.387L51.721,29.96C51.492,30.064 51.16,30.189 50.764,30.189C49.88,30.189 49.557,29.689 49.557,29.065C49.557,28.857 49.588,28.69 49.609,28.503L50.202,25.652Z" style="fill:rgb(0,36,84);fill-rule:nonzero;"/>
                    <path d="M56.134,27.161C56.166,26.995 56.186,26.838 56.186,26.641C56.186,26.069 55.937,25.517 55.208,25.517C54.47,25.517 53.741,26.163 53.481,27.161L56.134,27.161ZM55.302,24.883C56.436,24.883 56.863,25.673 56.863,26.714C56.863,27.12 56.748,27.515 56.686,27.702L53.398,27.702C53.211,29.003 53.887,29.555 54.771,29.555C55.167,29.555 55.583,29.356 55.905,29.118L56.218,29.648C55.812,29.939 55.239,30.189 54.584,30.189C53.387,30.189 52.596,29.429 52.596,28.077C52.596,26.173 53.98,24.883 55.302,24.883Z" style="fill:rgb(0,36,84);fill-rule:nonzero;"/>
                    <path d="M61.016,28.462L61.463,26.298C61.151,25.767 60.818,25.549 60.433,25.549C59.455,25.549 58.55,26.797 58.55,28.119C58.55,28.941 58.893,29.347 59.455,29.347C59.934,29.347 60.537,29.045 61.016,28.462ZM62.504,25.008L61.442,30.304C61.172,31.646 60.339,32.395 59.07,32.395C58.394,32.395 57.79,32.104 57.301,31.698L57.676,31.147C58.061,31.479 58.539,31.75 59.101,31.75C59.965,31.75 60.475,31.157 60.693,30.241L60.943,29.201L60.912,29.201C60.412,29.679 59.84,30.012 59.195,30.012C58.342,30.012 57.728,29.409 57.728,28.233C57.728,26.381 59.039,24.883 60.402,24.883C60.932,24.883 61.38,25.185 61.619,25.642L61.65,25.642L61.848,25.008L62.504,25.008Z" style="fill:rgb(0,36,84);fill-rule:nonzero;"/>
                    <path d="M64.273,25.007L64.929,25.007L64.815,25.975L64.856,25.975C65.262,25.36 65.803,24.882 66.427,24.882C66.615,24.882 66.76,24.913 66.906,24.976L66.625,25.683C66.521,25.631 66.375,25.6 66.188,25.6C65.688,25.6 65.127,26.048 64.7,26.869L64.065,30.064L63.275,30.064L64.273,25.007Z" style="fill:rgb(0,36,84);fill-rule:nonzero;"/>
                    <path d="M68.114,23.488C68.114,23.145 68.395,22.885 68.717,22.885C68.988,22.885 69.227,23.061 69.227,23.363C69.227,23.707 68.947,23.956 68.624,23.956C68.353,23.956 68.114,23.79 68.114,23.488ZM67.947,25.007L68.748,25.007L67.729,30.064L66.938,30.064L67.947,25.007Z" style="fill:rgb(0,36,84);fill-rule:nonzero;"/>
                    <path d="M42.08,23.488C42.08,23.145 42.361,22.885 42.683,22.885C42.954,22.885 43.193,23.061 43.193,23.363C43.193,23.707 42.913,23.956 42.59,23.956C42.32,23.956 42.08,23.79 42.08,23.488ZM41.914,25.007L42.715,25.007L41.695,30.064L40.904,30.064L41.914,25.007Z" style="fill:rgb(0,36,84);fill-rule:nonzero;"/>
                    <path d="M70.55,25.652L69.811,25.652L69.926,25.059L70.717,25.007L71.091,23.613L71.767,23.613L71.487,25.007L72.766,25.007L72.642,25.652L71.341,25.652L70.748,28.545C70.727,28.669 70.717,28.784 70.717,28.92C70.717,29.336 70.883,29.544 71.362,29.544C71.559,29.544 71.736,29.461 71.892,29.387L72.069,29.96C71.84,30.064 71.508,30.189 71.112,30.189C70.227,30.189 69.905,29.689 69.905,29.065C69.905,28.857 69.936,28.69 69.957,28.503L70.55,25.652Z" style="fill:rgb(0,36,84);fill-rule:nonzero;"/>
                    <path d="M72.663,31.594C73.173,31.594 73.641,31.136 73.984,30.439L74.172,30.075L73.308,25.008L74.099,25.008L74.494,27.848C74.567,28.306 74.619,28.878 74.66,29.357L74.702,29.357C74.942,28.878 75.202,28.327 75.452,27.848L76.908,25.008L77.699,25.008L74.723,30.491C74.193,31.48 73.579,32.239 72.611,32.239C72.465,32.239 72.226,32.197 72.028,32.094L72.288,31.5C72.413,31.563 72.528,31.594 72.663,31.594Z" style="fill:rgb(0,36,84);fill-rule:nonzero;"/>
                    <path d="M81.04,23.488C81.04,23.145 81.321,22.885 81.644,22.885C81.914,22.885 82.154,23.061 82.154,23.363C82.154,23.707 81.873,23.956 81.55,23.956C81.28,23.956 81.04,23.79 81.04,23.488ZM80.874,25.007L81.675,25.007L80.655,30.064L79.865,30.064L80.874,25.007Z" style="fill:rgb(0,36,84);fill-rule:nonzero;"/>
                    <path d="M83.434,25.007L84.09,25.007L84.017,25.766L84.058,25.766C84.63,25.267 85.193,24.882 85.827,24.882C86.68,24.882 87.024,25.36 87.024,26.141C87.024,26.38 87.003,26.557 86.94,26.838L86.296,30.064L85.504,30.064L86.129,26.942C86.181,26.672 86.212,26.526 86.212,26.349C86.212,25.839 85.983,25.569 85.463,25.569C85.068,25.569 84.579,25.85 83.944,26.484L83.226,30.064L82.435,30.064L83.434,25.007Z" style="fill:rgb(0,36,84);fill-rule:nonzero;"/>
                    <path d="M93.529,28.555L93.987,26.297C93.696,25.766 93.342,25.548 92.957,25.548C91.947,25.548 91.011,26.838 91.011,28.232C91.011,29.107 91.375,29.523 91.937,29.523C92.467,29.523 93.03,29.211 93.529,28.555ZM92.925,24.882C93.467,24.882 93.904,25.184 94.143,25.642L94.185,25.642L94.382,25.007L95.027,25.007L94.018,30.064L93.362,30.064L93.446,29.315L93.404,29.315C92.915,29.835 92.281,30.189 91.646,30.189C90.761,30.189 90.189,29.544 90.189,28.358C90.189,26.412 91.521,24.882 92.925,24.882Z" style="fill:rgb(0,36,84);fill-rule:nonzero;"/>
                    <path d="M97.276,22.656L98.077,22.656L96.777,29.138C96.756,29.242 96.756,29.295 96.756,29.336C96.756,29.461 96.829,29.524 96.933,29.524C96.974,29.524 97.005,29.524 97.099,29.492L97.11,30.106C96.974,30.158 96.829,30.189 96.61,30.189C96.162,30.189 95.934,29.95 95.934,29.534C95.934,29.419 95.955,29.274 95.996,29.097L97.276,22.656Z" style="fill:rgb(0,36,84);fill-rule:nonzero;"/>
                    <path d="M99.961,22.656L100.763,22.656L99.461,29.138C99.441,29.242 99.441,29.295 99.441,29.336C99.441,29.461 99.513,29.524 99.618,29.524C99.659,29.524 99.69,29.524 99.784,29.492L99.795,30.106C99.659,30.158 99.513,30.189 99.295,30.189C98.848,30.189 98.619,29.95 98.619,29.534C98.619,29.419 98.639,29.274 98.681,29.097L99.961,22.656Z" style="fill:rgb(0,36,84);fill-rule:nonzero;"/>
                    <path d="M103.677,25.007L104.468,25.007L104.634,27.983C104.645,28.461 104.655,28.93 104.666,29.398L104.707,29.398C104.915,28.93 105.092,28.461 105.31,27.983L106.642,25.007L107.423,25.007L107.6,27.983C107.621,28.461 107.631,28.93 107.652,29.398L107.693,29.398C107.891,28.93 108.057,28.461 108.276,27.983L109.597,25.007L110.346,25.007L108.047,30.064L107.059,30.064L106.913,27.296C106.902,26.817 106.892,26.308 106.882,25.808L106.84,25.808C106.632,26.308 106.434,26.817 106.226,27.296L104.998,30.064L104.041,30.064L103.677,25.007Z" style="fill:rgb(0,36,84);fill-rule:nonzero;"/>
                    <path d="M114.292,27.161C114.323,26.995 114.344,26.838 114.344,26.641C114.344,26.069 114.094,25.517 113.366,25.517C112.627,25.517 111.898,26.163 111.639,27.161L114.292,27.161ZM113.459,24.883C114.594,24.883 115.02,25.673 115.02,26.714C115.02,27.12 114.906,27.515 114.843,27.702L111.555,27.702C111.368,29.003 112.044,29.555 112.929,29.555C113.324,29.555 113.74,29.356 114.063,29.118L114.375,29.648C113.969,29.939 113.397,30.189 112.742,30.189C111.545,30.189 110.754,29.429 110.754,28.077C110.754,26.173 112.138,24.883 113.459,24.883Z" style="fill:rgb(0,36,84);fill-rule:nonzero;"/>
                    <path d="M121.328,28.555L121.786,26.297C121.494,25.766 121.14,25.548 120.755,25.548C119.746,25.548 118.81,26.838 118.81,28.232C118.81,29.107 119.174,29.523 119.736,29.523C120.266,29.523 120.818,29.211 121.328,28.555ZM122.118,24.632L122.514,22.655L123.315,22.655L121.817,30.064L121.161,30.064L121.245,29.315L121.203,29.315C120.714,29.835 120.079,30.189 119.445,30.189C118.56,30.189 117.988,29.544 117.988,28.358C117.988,26.412 119.319,24.882 120.724,24.882C121.266,24.882 121.671,25.174 121.921,25.621L121.952,25.621L122.118,24.632Z" style="fill:rgb(0,36,84);fill-rule:nonzero;"/>
                    <path d="M124.461,28.108C124.461,29.023 124.846,29.523 125.543,29.523C126.48,29.523 127.385,28.378 127.385,26.963C127.385,26.048 127,25.538 126.303,25.538C125.377,25.538 124.461,26.693 124.461,28.108ZM123.66,28.16C123.66,26.245 125.002,24.882 126.386,24.882C127.479,24.882 128.196,25.652 128.196,26.911C128.196,28.826 126.844,30.189 125.46,30.189C124.368,30.189 123.66,29.419 123.66,28.16Z" style="fill:rgb(0,36,84);fill-rule:nonzero;"/>
                </g>
            </g>
            <g>
            </g>
        </g>
    </g>
</svg>
